<svg xmlns="http://www.w3.org/2000/svg" xmlns:xlink="http://www.w3.org/1999/xlink" width="500" zoomAndPan="magnify" viewBox="0 0 375 374.999991" height="500" preserveAspectRatio="xMidYMid meet" version="1.0"><defs><g/><clipPath id="ba821f80e7"><path d="M 18.6875 18.6875 L 356.3125 18.6875 L 356.3125 356.3125 L 18.6875 356.3125 Z M 18.6875 18.6875 " clip-rule="nonzero"/></clipPath></defs><path fill="#ffffff" d="M 0 0 L 374.414062 0 L 374.414062 374.414062 L 0 374.414062 Z M 0 0 " fill-opacity="1" fill-rule="nonzero"/><g clip-path="url(#ba821f80e7)"><path fill="#000000" d="M 18.6875 18.6875 L 356.1875 18.6875 L 356.1875 356.183594 L 18.6875 356.183594 Z M 18.6875 18.6875 " fill-opacity="1" fill-rule="nonzero"/></g><g fill="#000000" fill-opacity="1"><g transform="translate(187.494157, 184.435555)"><g/></g></g><g fill="#000000" fill-opacity="1"><g transform="translate(187.494157, 196.435554)"><g/></g></g><g fill="#ffffff" fill-opacity="1"><g transform="translate(41.716131, 273.610479)"><g><path d="M 16.34375 0 L 16.34375 -168.4375 L 60.3125 -168.4375 L 60.3125 -37.484375 L 131.671875 -37.484375 L 131.671875 0 Z M 16.34375 0 "/></g></g></g><g fill="#ffffff" fill-opacity="1"><g transform="translate(168.143049, 272.690143)"><g><path d="M 93.96875 -125.359375 C 105.425781 -125.359375 115.507812 -122.722656 124.21875 -117.453125 C 132.925781 -112.179688 139.6875 -104.691406 144.5 -94.984375 C 149.3125 -85.285156 151.71875 -74.097656 151.71875 -61.421875 C 151.71875 -48.890625 149.382812 -37.882812 144.71875 -28.40625 C 140.0625 -18.9375 133.414062 -11.601562 124.78125 -6.40625 C 116.15625 -1.21875 106.191406 1.375 94.890625 1.375 C 87.085938 1.375 80.015625 -0.113281 73.671875 -3.09375 C 67.335938 -6.070312 61.957031 -10.390625 57.53125 -16.046875 L 57.53125 0 L 16.734375 0 L 16.734375 -170.0625 L 57.53125 -170.0625 L 57.53125 -107.953125 C 66.539062 -119.554688 78.6875 -125.359375 93.96875 -125.359375 Z M 83.875 -31.625 C 91.820312 -31.625 98.28125 -34.453125 103.25 -40.109375 C 108.21875 -45.765625 110.703125 -53.175781 110.703125 -62.34375 C 110.703125 -71.507812 108.21875 -78.957031 103.25 -84.6875 C 98.28125 -90.414062 91.820312 -93.28125 83.875 -93.28125 C 76.082031 -93.28125 69.742188 -90.414062 64.859375 -84.6875 C 59.972656 -78.957031 57.53125 -71.507812 57.53125 -62.34375 C 57.53125 -53.175781 59.972656 -45.765625 64.859375 -40.109375 C 69.742188 -34.453125 76.082031 -31.625 83.875 -31.625 Z M 83.875 -31.625 "/></g></g></g></svg>